<mxfile modified="2020-09-05T09:48:50.939Z" host="app.diagrams.net" agent="5.0 (Windows NT 10.0; Win64; x64) AppleWebKit/537.36 (KHTML, like Gecko) Chrome/84.0.4147.135 Safari/537.36" etag="1uEQrILq83N4DUkUIywE" version="13.6.5" type="github">
  <diagram id="Ht1M8jgEwFfnCIfOTk4-" name="Page-1">
    <mxGraphModel dx="1600" dy="981" grid="1" gridSize="10" guides="1" tooltips="1" connect="1" arrows="1" fold="1" page="1" pageScale="1" pageWidth="1169" pageHeight="827" math="0" shadow="0">
      <root>
        <mxCell id="0" />
        <mxCell id="1" parent="0" />
        <mxCell id="iEd_i-qWUTTT8tZ28lYD-24" value="" style="rounded=0;whiteSpace=wrap;html=1;dashed=1;fillColor=#d5e8d4;opacity=50;strokeColor=#82b366;" vertex="1" parent="1">
          <mxGeometry x="220" y="489" width="410" height="131" as="geometry" />
        </mxCell>
        <mxCell id="iEd_i-qWUTTT8tZ28lYD-23" value="" style="rounded=0;whiteSpace=wrap;html=1;dashed=1;fillColor=#f8cecc;opacity=50;strokeColor=none;" vertex="1" parent="1">
          <mxGeometry x="220" y="319" width="650" height="131" as="geometry" />
        </mxCell>
        <mxCell id="iEd_i-qWUTTT8tZ28lYD-18" value="" style="rounded=1;whiteSpace=wrap;html=1;fillColor=none;dashed=1;" vertex="1" parent="1">
          <mxGeometry x="270" y="190" width="120" height="440" as="geometry" />
        </mxCell>
        <mxCell id="iEd_i-qWUTTT8tZ28lYD-20" value="" style="rounded=1;whiteSpace=wrap;html=1;fillColor=none;dashed=1;" vertex="1" parent="1">
          <mxGeometry x="500" y="190" width="120" height="440" as="geometry" />
        </mxCell>
        <mxCell id="iEd_i-qWUTTT8tZ28lYD-21" value="" style="rounded=1;whiteSpace=wrap;html=1;fillColor=none;dashed=1;" vertex="1" parent="1">
          <mxGeometry x="736" y="190" width="120" height="260" as="geometry" />
        </mxCell>
        <mxCell id="iEd_i-qWUTTT8tZ28lYD-13" style="edgeStyle=orthogonalEdgeStyle;rounded=0;orthogonalLoop=1;jettySize=auto;html=1;" edge="1" parent="1" source="iEd_i-qWUTTT8tZ28lYD-1" target="iEd_i-qWUTTT8tZ28lYD-4">
          <mxGeometry relative="1" as="geometry" />
        </mxCell>
        <mxCell id="iEd_i-qWUTTT8tZ28lYD-1" value="Events (Daily)" style="outlineConnect=0;fontColor=#232F3E;gradientColor=none;fillColor=#BC1356;strokeColor=none;dashed=0;verticalLabelPosition=bottom;verticalAlign=top;align=center;html=1;fontSize=12;fontStyle=0;aspect=fixed;pointerEvents=1;shape=mxgraph.aws4.event_time_based;" vertex="1" parent="1">
          <mxGeometry x="291" y="330" width="78" height="78" as="geometry" />
        </mxCell>
        <mxCell id="iEd_i-qWUTTT8tZ28lYD-2" value="CloudWatch" style="outlineConnect=0;fontColor=#232F3E;gradientColor=#F34482;gradientDirection=north;fillColor=#BC1356;strokeColor=#ffffff;dashed=0;verticalLabelPosition=bottom;verticalAlign=top;align=center;html=1;fontSize=12;fontStyle=0;aspect=fixed;shape=mxgraph.aws4.resourceIcon;resIcon=mxgraph.aws4.cloudwatch;" vertex="1" parent="1">
          <mxGeometry x="292" y="210" width="78" height="78" as="geometry" />
        </mxCell>
        <mxCell id="iEd_i-qWUTTT8tZ28lYD-3" value="Lambda" style="outlineConnect=0;fontColor=#232F3E;gradientColor=#F78E04;gradientDirection=north;fillColor=#D05C17;strokeColor=#ffffff;dashed=0;verticalLabelPosition=bottom;verticalAlign=top;align=center;html=1;fontSize=12;fontStyle=0;aspect=fixed;shape=mxgraph.aws4.resourceIcon;resIcon=mxgraph.aws4.lambda;" vertex="1" parent="1">
          <mxGeometry x="522" y="210" width="78" height="78" as="geometry" />
        </mxCell>
        <mxCell id="iEd_i-qWUTTT8tZ28lYD-14" style="edgeStyle=orthogonalEdgeStyle;rounded=0;orthogonalLoop=1;jettySize=auto;html=1;startArrow=classic;startFill=1;" edge="1" parent="1" source="iEd_i-qWUTTT8tZ28lYD-4" target="iEd_i-qWUTTT8tZ28lYD-10">
          <mxGeometry relative="1" as="geometry" />
        </mxCell>
        <mxCell id="iEd_i-qWUTTT8tZ28lYD-31" value="Write" style="edgeLabel;html=1;align=center;verticalAlign=middle;resizable=0;points=[];" vertex="1" connectable="0" parent="iEd_i-qWUTTT8tZ28lYD-14">
          <mxGeometry x="0.1386" y="-2" relative="1" as="geometry">
            <mxPoint x="-9" y="-2" as="offset" />
          </mxGeometry>
        </mxCell>
        <mxCell id="iEd_i-qWUTTT8tZ28lYD-17" style="rounded=0;orthogonalLoop=1;jettySize=auto;html=1;startArrow=classic;startFill=1;" edge="1" parent="1" source="iEd_i-qWUTTT8tZ28lYD-4" target="iEd_i-qWUTTT8tZ28lYD-12">
          <mxGeometry relative="1" as="geometry" />
        </mxCell>
        <mxCell id="iEd_i-qWUTTT8tZ28lYD-4" value="Function &lt;br&gt;(Registration)" style="outlineConnect=0;fontColor=#232F3E;gradientColor=none;fillColor=#D05C17;strokeColor=none;dashed=0;verticalLabelPosition=bottom;verticalAlign=top;align=center;html=1;fontSize=12;fontStyle=0;aspect=fixed;pointerEvents=1;shape=mxgraph.aws4.lambda_function;" vertex="1" parent="1">
          <mxGeometry x="521" y="330" width="78" height="78" as="geometry" />
        </mxCell>
        <mxCell id="iEd_i-qWUTTT8tZ28lYD-5" value="DynamoDB" style="outlineConnect=0;fontColor=#232F3E;gradientColor=#4D72F3;gradientDirection=north;fillColor=#3334B9;strokeColor=#ffffff;dashed=0;verticalLabelPosition=bottom;verticalAlign=top;align=center;html=1;fontSize=12;fontStyle=0;aspect=fixed;shape=mxgraph.aws4.resourceIcon;resIcon=mxgraph.aws4.dynamodb;" vertex="1" parent="1">
          <mxGeometry x="758" y="210" width="78" height="78" as="geometry" />
        </mxCell>
        <mxCell id="iEd_i-qWUTTT8tZ28lYD-15" style="edgeStyle=orthogonalEdgeStyle;rounded=0;orthogonalLoop=1;jettySize=auto;html=1;startArrow=none;startFill=0;" edge="1" parent="1" source="iEd_i-qWUTTT8tZ28lYD-8" target="iEd_i-qWUTTT8tZ28lYD-9">
          <mxGeometry relative="1" as="geometry" />
        </mxCell>
        <mxCell id="iEd_i-qWUTTT8tZ28lYD-8" value="Events (Monthly)" style="outlineConnect=0;fontColor=#232F3E;gradientColor=none;fillColor=#BC1356;strokeColor=none;dashed=0;verticalLabelPosition=bottom;verticalAlign=top;align=center;html=1;fontSize=12;fontStyle=0;aspect=fixed;pointerEvents=1;shape=mxgraph.aws4.event_time_based;" vertex="1" parent="1">
          <mxGeometry x="291" y="500" width="78" height="78" as="geometry" />
        </mxCell>
        <mxCell id="iEd_i-qWUTTT8tZ28lYD-16" style="edgeStyle=orthogonalEdgeStyle;rounded=0;orthogonalLoop=1;jettySize=auto;html=1;startArrow=none;startFill=0;" edge="1" parent="1" source="iEd_i-qWUTTT8tZ28lYD-9" target="iEd_i-qWUTTT8tZ28lYD-12">
          <mxGeometry relative="1" as="geometry" />
        </mxCell>
        <mxCell id="iEd_i-qWUTTT8tZ28lYD-9" value="Function &lt;br&gt;(sendMessage)" style="outlineConnect=0;fontColor=#232F3E;gradientColor=none;fillColor=#D05C17;strokeColor=none;dashed=0;verticalLabelPosition=bottom;verticalAlign=top;align=center;html=1;fontSize=12;fontStyle=0;aspect=fixed;pointerEvents=1;shape=mxgraph.aws4.lambda_function;" vertex="1" parent="1">
          <mxGeometry x="521" y="500" width="78" height="78" as="geometry" />
        </mxCell>
        <mxCell id="iEd_i-qWUTTT8tZ28lYD-10" value="Table &lt;br&gt;(Registered Users)" style="outlineConnect=0;fontColor=#232F3E;gradientColor=none;fillColor=#3334B9;strokeColor=none;dashed=0;verticalLabelPosition=bottom;verticalAlign=top;align=center;html=1;fontSize=12;fontStyle=0;aspect=fixed;pointerEvents=1;shape=mxgraph.aws4.table;" vertex="1" parent="1">
          <mxGeometry x="757" y="330" width="78" height="78" as="geometry" />
        </mxCell>
        <mxCell id="iEd_i-qWUTTT8tZ28lYD-12" value="Telegram Bot API" style="shape=image;html=1;verticalAlign=top;verticalLabelPosition=bottom;labelBackgroundColor=#ffffff;imageAspect=0;aspect=fixed;image=https://cdn3.iconfinder.com/data/icons/social-media-chamfered-corner/154/telegram-128.png" vertex="1" parent="1">
          <mxGeometry x="758" y="500" width="78" height="78" as="geometry" />
        </mxCell>
        <mxCell id="iEd_i-qWUTTT8tZ28lYD-25" value="&lt;b style=&quot;font-size: 15px;&quot;&gt;Registration&lt;/b&gt;" style="text;html=1;resizable=0;autosize=1;align=center;verticalAlign=middle;points=[];fillColor=none;strokeColor=none;rounded=0;dashed=1;opacity=50;fontSize=15;rotation=-90;" vertex="1" parent="1">
          <mxGeometry x="190" y="374.5" width="100" height="20" as="geometry" />
        </mxCell>
        <mxCell id="iEd_i-qWUTTT8tZ28lYD-26" style="rounded=0;orthogonalLoop=1;jettySize=auto;html=1;startArrow=none;startFill=0;" edge="1" parent="1" source="iEd_i-qWUTTT8tZ28lYD-9" target="iEd_i-qWUTTT8tZ28lYD-10">
          <mxGeometry relative="1" as="geometry">
            <mxPoint x="609" y="406.97468354430384" as="sourcePoint" />
            <mxPoint x="768" y="521.0253164556962" as="targetPoint" />
          </mxGeometry>
        </mxCell>
        <mxCell id="iEd_i-qWUTTT8tZ28lYD-29" value="Read" style="edgeLabel;html=1;align=center;verticalAlign=middle;resizable=0;points=[];" vertex="1" connectable="0" parent="iEd_i-qWUTTT8tZ28lYD-26">
          <mxGeometry x="-0.2631" y="-1" relative="1" as="geometry">
            <mxPoint x="-18.01" y="10.36" as="offset" />
          </mxGeometry>
        </mxCell>
        <mxCell id="iEd_i-qWUTTT8tZ28lYD-27" value="&lt;b style=&quot;font-size: 15px&quot;&gt;Reminder&lt;/b&gt;" style="text;html=1;resizable=0;autosize=1;align=center;verticalAlign=middle;points=[];fillColor=none;strokeColor=none;rounded=0;dashed=1;opacity=50;fontSize=15;rotation=-90;" vertex="1" parent="1">
          <mxGeometry x="200" y="544.5" width="80" height="20" as="geometry" />
        </mxCell>
      </root>
    </mxGraphModel>
  </diagram>
</mxfile>
